<svg xmlns="http://www.w3.org/2000/svg" width="256" height="256" viewBox="0 0 100 100"><rect width="100" height="100" rx="50" fill="#000000"></rect><path fill="#fff" d="M84.20 49.10L84.20 62.51L79.70 62.51L79.70 80.51Q75.74 82.76 68.14 84.52Q60.53 86.27 51.71 86.27L51.71 86.27Q34.88 86.27 25.34 77.41Q15.80 68.54 15.80 50.00L15.80 50.00Q15.80 31.01 25.30 22.37Q34.79 13.73 52.43 13.73L52.43 13.73Q60.98 13.73 68.45 15.53Q75.92 17.33 79.70 19.58L79.70 19.58L79.70 41.09L57.20 41.09L57.20 36.86Q57.20 33.08 55.63 31.42Q54.05 29.75 50.63 29.75L50.63 29.75Q47.21 29.75 45.64 31.42Q44.06 33.08 44.06 36.86L44.06 36.86L44.06 63.14Q44.06 66.92 45.64 68.59Q47.21 70.25 50.63 70.25L50.63 70.25Q54.05 70.25 55.63 68.59Q57.20 66.92 57.20 63.14L57.20 63.14L57.20 62.51L52.34 62.51L52.34 49.10L84.20 49.10Z"></path></svg>